<svg width="80" height="80" viewBox="0 0 80 80" fill="none" xmlns="http://www.w3.org/2000/svg">
<rect width="80" height="80" fill="white"/>
<path d="M7.56 76V74.97H13.74V4.92999H7.56V3.9H43.61L45.67 24.5H45.155C43.198 12.655 37.533 4.92999 30.838 4.92999H24.04V35.83H27.439C32.795 35.83 36.606 30.886 36.915 23.47H37.43V49.22H36.915C36.606 41.907 32.795 36.86 27.439 36.86H24.04V74.97H33.31V76H7.56ZM59.064 2.87C68.437 2.87 72.454 6.887 72.454 16.26V28.62H62.154V16.26C62.154 13.376 61.227 12.14 59.064 12.14C56.901 12.14 55.974 13.376 55.974 16.26V63.64C55.974 66.524 56.901 67.76 59.064 67.76C61.227 67.76 62.154 66.524 62.154 63.64V51.28H72.454V63.64C72.454 73.013 68.437 77.03 59.064 77.03C49.691 77.03 45.674 73.013 45.674 63.64V16.26C45.674 6.887 49.691 2.87 59.064 2.87Z" fill="#1E1E20"/>
</svg>
