<svg width="484" height="88" viewBox="0 0 484 88" fill="none" xmlns="http://www.w3.org/2000/svg">
<path d="M-0.600098 86.0001V84.8001H6.5999V3.20005H-0.600098V2.00005H41.3999L43.7999 26.0001H43.1999C40.9199 12.2001 34.3199 3.20005 26.5199 3.20005H18.5999V39.2001H22.5599C28.7999 39.2001 33.2399 33.44 33.5999 24.8H34.1999V54.8001H33.5999C33.2399 46.2801 28.7999 40.4001 22.5599 40.4001H18.5999V84.8001H29.3999V86.0001H-0.600098Z" fill="#1E1E20"/>
<path d="M33.0046 86.0001V84.8001H40.3246L59.6446 2.00005H60.8446L84.0046 84.8001H88.2046V86.0001H66.2446V84.8001H71.7646L64.8046 59.6001H47.7646L41.8846 84.8001H49.9246V86.0001H33.0046ZM56.5246 22.52L48.0046 58.4001H64.4446L54.8446 24.3201L56.5246 22.52Z" fill="#1E1E20"/>
<path d="M110.487 86.0001H85.7671V84.8001H92.9671V3.20005H85.7671V2.00005H109.167C121.047 2.00005 128.967 9.92005 128.967 21.92C128.967 32.4801 122.967 40.16 113.367 41.84V42.4401C123.687 43.6401 130.167 52.0401 130.167 64.0401C130.167 77.3601 122.247 86.0001 110.487 86.0001ZM104.967 3.20005V41.6001H108.447C113.727 41.6001 116.967 34.16 116.967 22.04C116.967 10.28 113.847 3.20005 108.567 3.20005H104.967ZM109.167 42.8001H104.967V84.8001H109.167C114.567 84.8001 118.167 76.6401 118.167 63.8001C118.167 50.96 114.567 42.8001 109.167 42.8001Z" fill="#1E1E20"/>
<path d="M157.633 86.0001H131.353V84.8001H138.433V3.20005H131.353V2.00005H155.593C167.473 2.00005 175.633 10.28 175.633 22.2801C175.633 33.0801 169.153 41.12 159.073 43.0401V43.6401C169.393 44.9601 175.633 52.5201 175.633 63.6801V80.84C175.633 83.2401 177.193 84.8001 179.353 84.8001C181.633 84.8001 183.553 83.12 184.153 80.84L185.353 81.2001C184.513 85.0401 180.793 87.2001 175.273 87.2001C167.833 87.2001 163.633 83.3601 163.633 76.8801V62.2401C163.633 51.0801 160.153 44 154.753 44H150.433V84.8001H157.633V86.0001ZM150.433 3.20005V42.8001H154.033C159.793 42.8001 163.633 34.7601 163.633 22.2801C163.633 10.6401 160.273 3.20005 154.753 3.20005H150.433Z" fill="#1E1E20"/>
<path d="M185.376 2.00005H211.776V3.20005H204.576V84.8001H211.776V86.0001H185.376V84.8001H192.576V3.20005H185.376V2.00005Z" fill="#1E1E20"/>
<path d="M215.348 86.0001V84.8001L245.948 2.84005L247.268 3.20005H236.708C228.668 3.20005 221.348 12.8001 218.348 27.2001H217.748L220.748 2.00005H258.548V3.20005L227.828 85.4001L226.628 84.8001H240.668C249.308 84.8001 256.748 75.3201 259.148 60.8001H259.748L257.348 86.0001H215.348Z" fill="#1E1E20"/>
<path d="M263.306 2.00005H289.706V3.20005H282.506V84.8001H289.706V86.0001H263.306V84.8001H270.506V3.20005H263.306V2.00005Z" fill="#1E1E20"/>
<path d="M290.878 44.2401C290.878 18.56 301.678 0.800049 317.278 0.800049C332.878 0.800049 343.678 18.4401 343.678 44.1201C343.678 69.6801 332.878 87.2001 317.278 87.2001C301.558 87.2001 290.878 69.8 290.878 44.2401ZM302.878 43.4001C302.878 68.7201 308.998 86.0001 317.998 86.0001C326.518 86.0001 331.678 70.5201 331.678 44.6001C331.678 19.28 325.558 2.00005 316.558 2.00005C308.038 2.00005 302.878 17.48 302.878 43.4001Z" fill="#1E1E20"/>
<path d="M366.431 0.800049C377.351 0.800049 382.031 5.48005 382.031 16.4V30.8001H370.031V16.4C370.031 13.04 368.951 11.6001 366.431 11.6001C363.911 11.6001 362.831 13.04 362.831 16.4V71.6001C362.831 74.9601 363.911 76.4001 366.431 76.4001C368.951 76.4001 370.031 74.9601 370.031 71.6001V57.2001H382.031V71.6001C382.031 82.5201 377.351 87.2001 366.431 87.2001C355.511 87.2001 350.831 82.5201 350.831 71.6001V16.4C350.831 5.48005 355.511 0.800049 366.431 0.800049Z" fill="#1E1E20"/>
<path d="M385.636 86.0001V2.00005H397.636V75.2001H416.836V86.0001H385.636Z" fill="#1E1E20"/>
<path d="M438.469 71.6001V2.00005H450.469V71.6001C450.469 82.5201 445.789 87.2001 434.869 87.2001C423.949 87.2001 419.269 82.5201 419.269 71.6001V2.00005H431.269V71.6001C431.269 74.9601 432.349 76.4001 434.869 76.4001C437.389 76.4001 438.469 74.9601 438.469 71.6001Z" fill="#1E1E20"/>
<path d="M454.073 86.0001V2.00005H470.273C480.593 2.00005 484.673 7.28005 484.673 17.6V30.8001C484.673 36.32 482.153 40.0401 477.233 42.0801C482.513 44.0001 485.273 47.9601 485.273 53.6001V69.2001C485.273 80.9601 480.953 86.0001 470.873 86.0001H454.073ZM472.673 30.8001V17.6C472.673 13.76 471.713 12.8001 467.873 12.8001H466.073V36.8H468.593C471.473 36.8 472.673 35.0001 472.673 30.8001ZM473.273 69.2001V53.6001C473.273 49.4001 471.833 47.6001 468.473 47.6001H466.073V75.2001H468.473C472.313 75.2001 473.273 74.0001 473.273 69.2001Z" fill="#1E1E20"/>
</svg>
