<?xml version="1.0" encoding="utf-8"?><svg xmlns="http://www.w3.org/2000/svg" xmlns:xlink="http://www.w3.org/1999/xlink"><symbol viewBox="0 0 20 20" id="arrow-down" xmlns="http://www.w3.org/2000/svg"><path fill-rule="evenodd" clip-rule="evenodd" d="M10 12.293L5.354 7.646l-.708.708L10 13.707l5.354-5.353-.707-.708L10 12.293z"/></symbol><symbol viewBox="0 0 20 20" id="arrow-left" xmlns="http://www.w3.org/2000/svg"><g fill-rule="evenodd" clip-rule="evenodd"><path d="M7.707 10l4.646 4.647-.707.707-5.353-5.353 5.353-5.354.707.707-4.646 4.647z"/><path d="M7.707 10l4.646 4.647-.707.707-5.353-5.353 5.353-5.354.707.707-4.646 4.647z"/></g></symbol><symbol viewBox="0 0 20 20" id="arrow-right" xmlns="http://www.w3.org/2000/svg"><path fill-rule="evenodd" clip-rule="evenodd" d="M12.293 10l-4.647 4.646.708.708L13.707 10 8.354 4.646l-.708.708L12.293 10z"/><path fill-rule="evenodd" clip-rule="evenodd" d="M12.293 10l-4.647 4.646.708.708L13.707 10 8.354 4.646l-.708.708L12.293 10z"/></symbol><symbol viewBox="0 0 20 20" id="burger" xmlns="http://www.w3.org/2000/svg"><path fill-rule="evenodd" clip-rule="evenodd" d="M0 6h20V5H0v1zm0 9h20v-1H0v1z"/></symbol><symbol viewBox="0 0 16 16" id="close-small" xmlns="http://www.w3.org/2000/svg"><path fill-rule="evenodd" clip-rule="evenodd" d="M8 16A8 8 0 108 0a8 8 0 000 16zm-3.354-5.354L7.293 8 4.646 5.354l.708-.708L8 7.293l2.646-2.647.707.707L8.707 8l2.647 2.646-.707.708L8 8.707l-2.647 2.646-.707-.707z"/></symbol><symbol viewBox="0 0 20 20" id="filters" xmlns="http://www.w3.org/2000/svg"><path d="M3.5 3.5h5v5h-5zM3.5 10.5h5v5h-5zM10.5 3.5h5v5h-5zM10.5 10.5h5v5h-5z"/></symbol><symbol viewBox="0 0 16 16" id="minus" xmlns="http://www.w3.org/2000/svg"><path d="M5.33 9.47V8.7h5.06v.77H5.33z"/></symbol><symbol viewBox="0 0 20 20" id="modal-close" xmlns="http://www.w3.org/2000/svg"><path fill-rule="evenodd" clip-rule="evenodd" d="M9.293 10L.646 1.354l.708-.708L10 9.293 18.646.646l.708.708L10.707 10l8.647 8.646-.707.708L10 10.707l-8.646 8.647-.708-.707L9.293 10z"/></symbol><symbol viewBox="0 0 16 16" id="plus" xmlns="http://www.w3.org/2000/svg"><path d="M7.415 11.065v-5.28h.77v5.28h-.77zM5.16 8.81v-.77h5.28v.77H5.16z"/></symbol><symbol viewBox="0 0 24 24" id="return" xmlns="http://www.w3.org/2000/svg"><path fill-rule="evenodd" clip-rule="evenodd" d="M12.354 5.354l-.707-.708-7.342 7.342 7.33 7.853.73-.682L6.152 12.5H19.5v-1H6.207l6.147-6.146z"/></symbol><symbol viewBox="0 0 20 20" id="search" xmlns="http://www.w3.org/2000/svg"><g clip-path="url(#kclip0_884_12583)"><path fill-rule="evenodd" clip-rule="evenodd" d="M1 9a8 8 0 1116 0A8 8 0 011 9zm8-9a9 9 0 106 15.708l4.146 4.146h.708v-.708l-4.146-4.145A9 9 0 009 0z"/></g><defs><clipPath id="kclip0_884_12583"><path d="M0 0h20v20H0z"/></clipPath></defs></symbol><symbol viewBox="0 0 25 25" id="vk" xmlns="http://www.w3.org/2000/svg"><path d="M23.655 6.497c.16-.542 0-.941-.773-.941h-2.556c-.651 0-.95.343-1.111.724 0 0-1.302 3.173-3.143 5.23-.594.595-.868.786-1.193.786-.16 0-.408-.19-.408-.733V6.497c0-.65-.182-.941-.72-.941H9.73c-.408 0-.65.303-.65.586 0 .616.92.76 1.015 2.495v3.768c0 .824-.148.976-.473.976-.868 0-2.978-3.186-4.228-6.831-.251-.708-.499-.994-1.154-.994H1.684c-.729 0-.876.343-.876.724 0 .678.868 4.041 4.04 8.486 2.114 3.034 5.092 4.679 7.8 4.679 1.627 0 1.827-.365 1.827-.994 0-2.9-.147-3.173.669-3.173.377 0 1.028.19 2.547 1.653 1.736 1.737 2.023 2.514 2.995 2.514h2.556c.73 0 1.099-.365.886-1.085-.486-1.515-3.772-4.632-3.92-4.84-.377-.486-.268-.703 0-1.137.005-.004 3.126-4.397 3.447-5.885z"/></symbol></svg>